<svg id="圖層_1" data-name="圖層 1" xmlns="http://www.w3.org/2000/svg" viewBox="0 0 512 512"><defs><style>.cls-1{fill:#f6ca9f;}.cls-2{fill:#ffa214;}.cls-3{fill:#fd8000;}</style></defs><path class="cls-1" d="M416,512H96A96,96,0,0,1,0,416V96A96,96,0,0,1,96,0H416a96,96,0,0,1,96,96V416A96,96,0,0,1,416,512Z"/><path class="cls-2" d="M365.33,128H232a18.69,18.69,0,0,0-18.67,18.67v26.67A18.7,18.7,0,0,0,232,192H365.33A18.71,18.71,0,0,0,384,173.33V146.67A18.68,18.68,0,0,0,365.33,128Z"/><circle class="cls-2" cx="160" cy="160" r="32"/><path class="cls-3" d="M365.33,213.33H146.67A18.76,18.76,0,0,0,128,232V365.33A18.76,18.76,0,0,0,146.67,384H365.34A18.76,18.76,0,0,0,384,365.33V232A18.76,18.76,0,0,0,365.33,213.33ZM352,333.33A18.69,18.69,0,0,1,333.33,352H178.66A18.69,18.69,0,0,1,160,333.33V264a18.69,18.69,0,0,1,18.67-18.67H333.34A18.69,18.69,0,0,1,352,264Z"/></svg>